<?xml version="1.0" encoding="utf-8"?>
<!-- Generator: Adobe Illustrator 25.2.1, SVG Export Plug-In . SVG Version: 6.00 Build 0)  -->
<svg version="1.1" id="Capa_1" xmlns="http://www.w3.org/2000/svg" xmlns:xlink="http://www.w3.org/1999/xlink" x="0px" y="0px"
	 viewBox="0 0 56.7 56.7" style="enable-background:new 0 0 56.7 56.7;" xml:space="preserve">
<style type="text/css">
	.st0{fill:#FBF9F8;}
	.st1{fill:#FFFFFF;}
</style>
<g>
	<g>
		<path class="st0" d="M4.5,6.8c2.6-0.3,5.3-0.4,7.9-0.4c3.7,0,7.4,0.8,11.1,0.3c1.3-0.1,2.5-1,2.5-2.5c0-1.2-1.1-2.6-2.5-2.5
			c-3.7,0.4-7.4-0.3-11.1-0.3c-2.6,0-5.3,0-7.9,0.4C3.1,1.9,2,2.8,2,4.3C2,5.5,3.1,6.9,4.5,6.8L4.5,6.8z"/>
	</g>
</g>
<g>
	<g>
		<path class="st0" d="M6.2,16.4c-0.6,0.1,0.4,0,0.5,0c0.3,0,0.7,0,1,0c0.8,0.1,1.6,0.1,2.4,0.2c0.5,0.1,1.3,0.2,2,0.3
			c0.8,0.1,1.7,0.2,2.5,0.3c3.7,0.3,7.5-0.2,11.2,0c1.3,0.1,2.5-1.2,2.5-2.5c0-1.4-1.1-2.4-2.5-2.5c-3.8-0.2-7.6,0.3-11.4,0
			c-0.3,0-0.6-0.1-0.9-0.1c-0.1,0-0.6-0.1-0.2,0c-0.2,0-0.4-0.1-0.5-0.1c-1-0.1-2-0.3-3-0.4c-1.7-0.2-3.3-0.3-5-0.1
			c-1.3,0.2-2.1,1.9-1.7,3.1C3.5,16.1,4.9,16.5,6.2,16.4L6.2,16.4z"/>
	</g>
</g>
<g>
	<g>
		<path class="st0" d="M5.3,22.2c0,0-0.1,0-0.1,0c0.8,0.2,1.6,0.4,2.4,0.6c0,0-0.1-0.1-0.1-0.1C7.8,23.4,8,24,8.3,24.6
			c0,0,0-0.1,0-0.1c-0.4,0.7-0.8,1.4-1.2,2.2c0.1,0,0.1-0.1,0.2-0.1c-0.4,0.1-0.8,0.2-1.3,0.3c1.6,0,3.3,0.3,5,0.3
			c1.6,0,3.3,0,4.9-0.1c3.4-0.1,6.8-0.2,10.2-0.3c3.2-0.1,3.2-5.1,0-5c-3.6,0.1-7.2,0.2-10.7,0.3c-1.7,0-3.4,0.1-5.1,0
			c-0.9,0-1.8-0.1-2.7-0.2c-1.1-0.1-1.9-0.2-2.9,0.3c-0.8,0.4-1.2,1.3-1.2,2.2c0,0.8,0.3,1.5,0.8,2c0.6,0.6,1.6,1,2.4,0.6
			c0,0,0.1,0,0.1,0c1.2-0.5,2.1-1.7,1.7-3.1C8.1,22.8,6.6,21.7,5.3,22.2L5.3,22.2z"/>
	</g>
</g>
<g>
	<g>
		<path class="st1" d="M35.4,4.4c0,0,0-0.1,0-0.1c-0.2,0.8-0.4,1.6-0.6,2.4c0,0,0.1-0.1,0.1-0.1c-0.4,0.2-0.7,0.4-1.1,0.6
			c-0.7,0-0.8,0-0.3,0.1c0.2,0,0.3,0.1,0.5,0.1c0.4,0.1,0.8,0.2,1.2,0.3c0.8,0.2,1.5,0.3,2.3,0.4c1.5,0.2,3,0.1,4.5,0
			c3.1-0.2,6.2-0.3,9.4-0.5c1.3-0.1,2.5-1.1,2.5-2.5c0-1.3-1.1-2.6-2.5-2.5C47.9,2.8,44.5,3,41.1,3.1c-1.5,0.1-2.9,0.1-4.3-0.2
			c-1.8-0.4-4-1.4-5.6,0.2c-0.6,0.6-0.9,1.6-0.6,2.4c0,0,0,0.1,0,0.1C31,7,32.3,7.9,33.7,7.5C34.9,7.1,35.8,5.7,35.4,4.4L35.4,4.4z"
			/>
	</g>
</g>
<g>
	<g>
		<path class="st0" d="M24,30.6c-4.4-2.6-10-1.4-13.5,2.1c-3.4,3.5-5.1,9.3-3.4,14c0.8,2.4,2.3,4.4,4.5,5.7c2.2,1.4,4.8,1.8,7.4,2.1
			c4.8,0.5,9.6-1.9,11.7-6.4c2.3-4.9,0.9-10.8-3.2-14.4c-1-0.9-2.5-1-3.5,0c-0.9,0.9-1,2.6,0,3.5c1.1,1,2,2.2,2.4,3.6
			c0.4,1.4,0.5,2.6,0.2,3.9c-0.6,2.5-2.7,4.6-5.4,4.8c-1.8,0.2-3.9-0.2-5.6-0.7c-1.4-0.5-2.5-1.3-3.2-2.5c-1.6-2.8-0.9-6.4,0.8-9
			c1.8-2.7,5.4-4.1,8.3-2.4C24.3,36.5,26.8,32.2,24,30.6L24,30.6z"/>
	</g>
</g>
</svg>
